<svg width="72" height="72" viewBox="0 0 72 72" fill="none" xmlns="http://www.w3.org/2000/svg">
<path d="M49 41.25C50.6569 41.25 52 40.1307 52 38.75C52 37.3693 50.6569 36.25 49 36.25C47.3431 36.25 46 37.3693 46 38.75C46 40.1307 47.3431 41.25 49 41.25Z" fill="white"/>
<path d="M49 52.25C50.6569 52.25 52 51.1307 52 49.75C52 48.3693 50.6569 47.25 49 47.25C47.3431 47.25 46 48.3693 46 49.75C46 51.1307 47.3431 52.25 49 52.25Z" fill="white"/>
<path d="M39 38.75C39 40.1307 37.6569 41.25 36 41.25C34.3431 41.25 33 40.1307 33 38.75C33 37.3693 34.3431 36.25 36 36.25C37.6569 36.25 39 37.3693 39 38.75Z" fill="white"/>
<path d="M39 49.75C39 51.1307 37.6569 52.25 36 52.25C34.3431 52.25 33 51.1307 33 49.75C33 48.3693 34.3431 47.25 36 47.25C37.6569 47.25 39 48.3693 39 49.75Z" fill="white"/>
<path d="M23 41.25C24.6569 41.25 26 40.1307 26 38.75C26 37.3693 24.6569 36.25 23 36.25C21.3432 36.25 20 37.3693 20 38.75C20 40.1307 21.3432 41.25 23 41.25Z" fill="white"/>
<path d="M23 52.25C24.6569 52.25 26 51.1307 26 49.75C26 48.3693 24.6569 47.25 23 47.25C21.3432 47.25 20 48.3693 20 49.75C20 51.1307 21.3432 52.25 23 52.25Z" fill="white"/>
<path fill-rule="evenodd" clip-rule="evenodd" d="M22.9767 9.25C24.0556 9.25 24.9302 10.1295 24.9302 11.2143V13.2119C26.6545 13.1785 28.5542 13.1785 30.6434 13.1786H41.3562C43.4457 13.1785 45.3455 13.1785 47.0698 13.2119V11.2143C47.0698 10.1295 47.9444 9.25 49.0233 9.25C50.1021 9.25 50.9767 10.1295 50.9767 11.2143V13.3805C51.6537 13.4324 52.295 13.4976 52.9016 13.5796C55.9553 13.9925 58.4271 14.8623 60.3764 16.8223C62.3255 18.7823 63.1905 21.2676 63.6012 24.3383C64 27.3219 64 31.1342 64 35.9473V41.481C64 46.2941 64 50.1066 63.6012 53.0902C63.1905 56.1608 62.3255 58.6463 60.3764 60.6064C58.4271 62.5662 55.9553 63.436 52.9016 63.849C49.9344 64.25 46.143 64.25 41.3565 64.25H30.6438C25.8571 64.25 22.0656 64.25 19.0984 63.849C16.0446 63.436 13.5729 62.5662 11.6237 60.6064C9.67448 58.6463 8.80942 56.1608 8.39888 53.0902C7.99992 50.1066 7.99995 46.2943 8 41.481V35.9475C7.99995 31.1342 7.99992 27.3219 8.39888 24.3383C8.80942 21.2676 9.67448 18.7823 11.6237 16.8223C13.5729 14.8623 16.0446 13.9925 19.0984 13.5796C19.705 13.4976 20.3462 13.4324 21.0233 13.3805V11.2143C21.0233 10.1295 21.8979 9.25 22.9767 9.25ZM19.619 17.4732C16.9984 17.8274 15.4887 18.4918 14.3863 19.6002C13.284 20.7086 12.6233 22.2268 12.271 24.8617C12.2113 25.308 12.1615 25.7778 12.1197 26.2738H59.8802C59.8386 25.7778 59.7885 25.308 59.7289 24.8617C59.3767 22.2268 58.7159 20.7086 57.6137 19.6002C56.5114 18.4918 55.0015 17.8274 52.3812 17.4732C49.7044 17.1113 46.1759 17.1071 41.2093 17.1071H30.7907C25.8241 17.1071 22.2957 17.1113 19.619 17.4732ZM11.907 36.0952C11.907 33.8586 11.9078 31.9118 11.9411 30.2024H60.0589C60.0922 31.9118 60.093 33.8586 60.093 36.0952V41.3333C60.093 46.3273 60.0889 49.8754 59.7289 52.567C59.3767 55.2017 58.7159 56.72 57.6137 57.8284C56.5114 58.9367 55.0015 59.6012 52.3812 59.9553C49.7044 60.3172 46.1759 60.3214 41.2093 60.3214H30.7907C25.8241 60.3214 22.2957 60.3172 19.619 59.9553C16.9984 59.6012 15.4887 58.9367 14.3863 57.8284C13.284 56.72 12.6233 55.2017 12.271 52.567C11.9111 49.8754 11.907 46.3273 11.907 41.3333V36.0952Z" fill="white"/>
</svg>
